<svg xmlns="http://www.w3.org/2000/svg" id="Capa_2" data-name="Capa 2" viewBox="0 0 33 47.8"><defs><style>.cls-1{fill:#fff}.cls-2{fill:#00953b}</style></defs><g id="Capa_1-2" data-name="Capa 1"><path d="M32 12.3h-2v-5l.1-.5q1-1.6.9-3.5V1a1 1 0 0 0-.5-1h-7.7a1 1 0 0 0-.5 1v1.6h-1.7V1a1 1 0 0 0-.5-1h-7.5a1 1 0 0 0-.5 1v1.5h-1.7V1a1 1 0 0 0-.5-1H2.4a1 1 0 0 0-.5 1v3.8l.1.6Q3 7 3 9v3.4H1a1 1 0 0 0-1 .5v28.7q.3.5.7.6L16 47.6l.3.2h.4l1.5-.6 14-5.1q.5-.1.8-.6V12.8a1 1 0 0 0-1-.6m.3 29.2L16.5 47 .6 41.4V12.9h2.8V7l-1-2V.6h7.3v2.6h3V.6H20v2.7h3.1V.5h7.2V5l-1 1.9V13h3z" class="cls-1"/><path d="M5 6.6h23l1-1.8V2h-4.5v2.6h-5.9V2h-4.3v2.6H8.4V2H4v2.8zM2.2 40.3l14.3 5.2 14.2-5.2V14.5H2.2zm26.5 0H7l21.6-23.1zm-.8-23.5-22 23.5h-.7L27 16.8zm-23.5 0H26l-10.2 11-4.3-6.4L9.9 19H8.2v11.3H10V29h4.7L4.4 40zM13 27.2h-3v-4.6l1.5 2.3z" class="cls-1"/><path d="M9.5 39.3h18V19.7L20 28.1h.3l3.5 5v-5H26v9.5h-2l-4.4-6.5v6.5h-2.2v-6.8zM28 7.4H5v1.2h23zM5 12v.8h3.2V12zm3.2-2.5H4.9v1h3.3zm0 1.2h3.3v.9H8.2zm6.5 2.1V12h-3.2v1zm-3.2-3.3h3.3v.9h-3.3zm3.3 1.2h3.3v.9h-3.3zm3.2 2.1h3.4V12H18zm.1-3.3h3.3v.9h-3.3zm3.3 1.2h3.3v.9h-3.3zm6.6 2.1V12h-3.3v1zm-3.3-3.3H28v.9h-3.3z" class="cls-1"/><path d="M29.4 13V6.7l1-1.9V.6H23v2.6h-3V.6h-7.2v2.7h-3V.5H2.6V5l1 1.9V13h-3v28.5l16 5.5 15.8-5.7V12.9zM4 2h4.4v2.6h5.9V2h4.3v2.6h6V2H29v2.8l-1 1.8H5L4 4.8zm1 10h3.2v.9H4.9zm0-1.5v-.9h3.2v1zm6.6 1.2H8.2v-1h3.3zm0-2.1h3.2v.9h-3.3zm0 3.3v-1h3.2v1zm3.3-2.1H18v.9h-3.3zm3.2 2V12h3.3v.9zm0-3.2h3.3v.9h-3.3zm6.6 2h-3.3v-.8h3.3zm0-2H28v.9h-3.3zm0 3.3v-1H28v1zM28 8.6H5V7.4h23zm2.7 31.7-14.2 5.2-14.3-5.2V14.5h28.5z" class="cls-2"/><path d="M10 22.6v4.6h3l-1.5-2.3z" class="cls-2"/><path d="M11.5 29H10v1.5H8.2V19h1.7l1.6 2.3 4.3 6.3 10.2-11H4.4V40l10.3-11zm17.2 11.3V17.2L7 40.3zm-9.2-2.7v-6.5l4.5 6.5h1.9v-9.5h-2.3v5l-3.4-5h-.3l7.6-8.4v19.6h-18l7.8-8.5v6.8zM6 40.3l21.9-23.5H27L5 40.3z" class="cls-2"/></g></svg>