<svg xmlns="http://www.w3.org/2000/svg" width="224.6" height="300" fill="#e00" viewBox="0 0 224.6 300"><title>EC Internacional de Lages</title><path d="M49.4 23v10.3h137.8V23.1H166l-.4-.4-11-8h-17.2l-.5-.7-8-10.6H108L100 14l-.6.7H82.3l-11 8-.5.4zM46 35V19.6h23.6l11-8 .5-.3h16.6l8-10.6.5-.7h24.2l.5.7 8 10.6h16.6l.5.3 11 8h23.7v17.1H46zm84 173h-24.6V40.3H130zm80.2-26.3 5.2 17.3-14.6-10.5-14.4 10.9 5.6-17.7-14.4-11.3h18l5.2-16 5.4 16h18.4z"/><path d="M113.4 58.4c52.8 0 97.3 38.7 109.9 90.9h-22c-11.9-40.3-46.8-69.5-87.9-69.5-50.7 0-92 44.6-92 99.4s41.3 99.4 92 99.4c41.5 0 76.7-29.8 88.2-70.5h22c-12.3 52.6-57 91.9-110.2 91.9C51 300 0 245.7 0 179.2S51 58.4 113.4 58.4"/><path d="M113.4 94.7c33 0 61.1 22.7 72.2 54.6h-23a56 56 0 0 0-49.2-33.2c-26.2 0-48.3 20.6-54.3 48.1h35.7v22.5H57.9c3.3 31.2 27 55.6 55.5 55.6 21.6 0 40.4-14 49.7-34.2H186c-10.9 32.3-39.3 55.6-72.6 55.6-42.5 0-77.2-38-77.2-84.5S71 94.7 113.4 94.7"/></svg>