<svg xmlns="http://www.w3.org/2000/svg" xml:space="preserve" viewBox="0 0 800 800"><path d="M348.2 774.3q-1.2 0-1.7-.6t-.5-1.8l.3-1.7q.1-1 1-1.8a3 3 0 0 1 2-.6q1 0 1.7.6t.4 1.6h-1.2q0-.6-.3-.8t-.8-.3-1 .3-.6 1l-.2 1.7q-.1.6.2 1 .2.3.9.3t1-.3l.5-.8h1.2q-.2 1-1 1.6a3 3 0 0 1-1.9.6m4.6-.1 1-6.3h1.2l-.2 1.2q.5-1.3 2-1.3.9 0 1.4.6t.3 1.7v.4h-1.3v-.3q.1-.6-.1-1t-1-.4q-.5 0-1 .4-.3.4-.4 1l-.7 4zm9.1.1q-1.2 0-1.7-.7t-.4-1.7l.2-1.7q.2-.8.6-1.3t1-.8 1.3-.3q1.2 0 1.8.7t.4 1.7l-.2 1.1H361v.6q-.3 1.5 1 1.4 1.1 0 1.4-.7h1.3q-.3.8-1 1.2-.8.5-1.8.5m-.7-4v.2h2.6v-1.3q-.4-.4-1-.4t-1 .4q-.4.3-.6 1m7.1 4q-.9 0-1.4-.6t-.3-1.8l.3-1.7a3 3 0 0 1 .9-1.8q.6-.6 1.6-.6.6 0 1 .3.4.4.4 1l.2-1.2h1.3l-1 6.3H370l.2-1.2q-.1.6-.7 1zm.6-1q.6 0 1-.4t.5-1l.3-1.7q0-.6-.2-1t-.9-.4-1 .4l-.5 1-.2 1.7q0 .6.2 1 .2.3.8.3m7.5.9q-.9 0-1.3-.5t-.3-1.3l.6-3.4h-1.8l.2-1.1h1.7l.3-1.7h1.2l-.2 1.7h2.4l-.1 1.1h-2.5l-.5 3.4q-.2.6.5.7h1.7l-.2 1zm6.1.1q-1.2 0-1.7-.7t-.4-1.7l.2-1.7.5-1.3 1-.8 1.4-.3q1.2 0 1.8.7.5.6.3 1.7l-.1 1.1h-3.9v.6q-.2 1.5 1 1.4 1.1 0 1.4-.7h1.2q-.2.8-1 1.2-.6.5-1.7.5m-.7-4v.2h2.6V769q-.4-.4-1-.4t-1 .4-.6 1m7.1 4q-.9 0-1.4-.6t-.3-1.8l.3-1.7a3 3 0 0 1 .9-1.8q.6-.6 1.6-.6.6 0 1 .3.4.4.4 1l.3-1.5.3-1.8h1.2l-1.3 8.4h-1.2l.1-1.2q-.1.6-.7 1zm.6-1q.6 0 1-.4t.5-1l.3-1.7q0-.6-.2-1t-.9-.4-1 .4l-.5 1-.2 1.7q0 .6.2 1 .2.3.8.3m11.5 1q-.7 0-1-.3-.5-.4-.5-1l-.2 1.2h-1.2l1.3-8.4h1.3l-.3 1.8-.3 1.5q.3-.6.8-1 .4-.3 1.2-.3.9 0 1.4.6t.3 1.8l-.3 1.7q-.1 1.1-.9 1.8-.6.6-1.6.6m-.2-1q.6 0 1-.4.3-.4.4-1l.3-1.7q0-.6-.2-1-.2-.3-.8-.3t-1 .3q-.5.4-.5 1l-.3 1.7q0 .6.2 1 .3.3.9.3m4.7 3 .1-1.1h2q1 0 1-1l.2-.6.2-1.2q-.3.7-.7 1l-1.2.3q-1 0-1.4-.6t-.3-1.6l.6-3.6h1.2l-.6 3.5q0 .6.2 1 .3.3.9.3t1-.4q.3-.4.4-1l.6-3.4h1.2l-1 6.4q-.2.8-.8 1.4t-1.7.6zm12.3-6.2h3.2l.6-1.9H416l-1.7 6.5h2.1l.6-2.1h3l.5-1.7h-3zm6.4 2.8q-1 0-1-1.1c0-.9.6-1.8 1.6-1.8q.8 0 1 .8l2-.8q-.6-1.9-2.6-2a4 4 0 0 0-4.2 4c0 1.7 1.3 2.8 3 2.8q2.1-.1 3-1.4l-1.5-1.2q-.5.7-1.3.7m6.7-4.7h-2.1l-1.8 6.5h5.1l.5-1.9h-3zm8.9 2.8c0-1.7-1.4-3-3.3-3a4 4 0 0 0-3.8 3.9c0 1.7 1.3 3 3.2 3a4 4 0 0 0 3.9-3.9m-4.9.7c0-.8.6-1.7 1.5-1.7q1.2 0 1.2 1.2c0 .8-.6 1.7-1.5 1.7q-1.2 0-1.2-1.2m8.3.5h1l-.1.7-.6.1q-1.2 0-1.3-1.2c0-1 .8-2 2-2q.8 0 1.5.7l1.4-1.4q-.9-.9-2.8-1c-2.6 0-4.3 1.7-4.3 3.8s1.6 2.9 3.2 2.9a5 5 0 0 0 2.5-.7l1-3.3h-3.1zm7.6-4.1a4 4 0 0 0-3.8 3.8c0 1.7 1.3 3 3.2 3 2.2 0 3.8-1.9 3.8-3.9 0-1.6-1.3-3-3.2-3m-.5 4.8q-1 0-1.1-1.2c0-.8.6-1.7 1.5-1.7q1.1 0 1.1 1.2c0 .8-.5 1.7-1.5 1.7m-12.4-5.4q0 .5.5.5t.6-.5-.4-.5q-.6.1-.7.5m-5.8-2q-.6 0-.8.6 0 .5.6.6.8 0 .8-.6t-.6-.6m1 1.8q-.3.8.7.9t1.2-.9c.2-.9-.1-.9-.8-.9q-1 0-1.2.9m6.5 10.3-2.4-1.9h-1.5l4.2 3.2 1.6-3.2h-1zm-13.8-10.4-2-1.5 23.2-2.8-2.2 4.3h1l2.7-5.4-27 3.3 2.8 2zm-87 18.6.5-3.8h2.4l-.1.5h-1.8l-.2 1.1h1.7l-.1.5h-1.6l-.3 1.7zm4.2 0q-.6 0-.8-.3t-.2-.8l.3-1.7q0-.5.4-.8.3-.3.9-.3.5 0 .8.3t.2.8l-.3 1.7q0 .6-.4.8t-1 .3m0-.5.5-.1.3-.5.2-1.7v-.5l-.5-.1q-.3 0-.4.2l-.2.4-.3 1.7v.5zm2 .5.6-3.8h1.2l.6.1q.3 0 .4.4v.6q0 .4-.3.6-.2.4-.6.4l.6 1.7h-.7l-.4-1.6h-.6l-.2 1.6zm.9-2h.6q.3 0 .5-.3l.2-.4v-.5l-.5-.1h-.6zm3.6 2 .7-3.8h1.2q.6 0 .8.3t.2.8l-.2.6q-.2.3-.5.4l-.7.2h-.7l-.2 1.5zm1-2h.6l.5-.2.3-.5-.1-.5-.5-.2h-.7zm2.3 2 .6-3.8h2.2v.5h-1.8l-.1 1h1.5l-.1.5h-1.5l-.2 1.3h1.7l-.1.5zm3 0 .6-3.8h1.3l.5.1q.3 0 .4.4v.6q0 .4-.2.6-.3.4-.6.4l.5 1.7h-.6l-.5-1.6h-.5l-.3 1.6zm1-2h.6q.3 0 .5-.3l.2-.4v-.5l-.5-.1h-.7zm3.3 2q-.5 0-.8-.2t-.3-.8h.6l.1.4.5.1.5-.1.2-.4v-.4l-.3-.2-.5-.2-.6-.4v-.7l.2-.5q0-.3.4-.4l.6-.1q.6 0 .9.3.2.3.1.7h-.5l-.1-.4-.4-.1-.5.1-.2.4v.4l.3.2.5.2q.4 0 .6.4.2.3.1.7l-.2.5-.5.4zm3.2 0q-.6 0-.8-.3t-.2-.8l.3-1.7q0-.5.4-.8.3-.3.9-.3.5 0 .8.3t.2.8l-.3 1.7q0 .6-.4.8t-1 .3m0-.5.5-.1.2-.5.3-1.7v-.5l-.5-.1q-.3 0-.4.2-.2 0-.3.4l-.2 1.7v.5zm2 .5.6-3.8h.7l.6 3.1v-.7l.1-.5.4-2h.5l-.6 3.9h-.7l-.7-3.2v1.2l-.4 2zm3 0 1.5-3.8h.8l.3 3.8h-.5v-1h-1.2l-.4 1zm1-1.5h1l-.1-1v-.9l-.2.3q0 .3-.2.5zm2.4 1.5.6-3.8h.6l-.5 3.3h1.7l-.1.5zm5 0q-.6 0-.8-.3t-.2-.8l.4-2.7h.6l-.4 2.7v.5l.5.2.4-.2.2-.5.5-2.7h.6l-.5 2.7q0 .5-.4.8t-1 .3m3.1 0q-.6 0-.8-.2t-.3-.8h.6l.1.4.5.1.5-.1.3-.4-.1-.4-.3-.2-.5-.2-.5-.4-.2-.7q0-.2.3-.5l.4-.4.7-.1q.5 0 .8.3l.2.7h-.6l-.1-.4-.4-.1-.5.1-.2.4v.4l.4.2.4.2q.5 0 .6.4.2.3.1.7l-.2.5-.5.4zm2.1 0 .6-3.8h2.3l-.1.5H383l-.2 1h1.5v.5h-1.6l-.1 1.3h1.6v.5zm5 0q-.5 0-.8-.3-.2-.3-.1-.8l.2-1.7q0-.5.5-.8.3-.3.9-.3.5 0 .8.3.2.3.1.8l-.2 1.7q0 .6-.5.8-.3.3-.9.3m.1-.5.5-.1.2-.5.3-1.7v-.5l-.5-.1-.5.2-.2.4-.3 1.7.1.5zm2 .5.6-3.8h.7l.6 3.1v-.7l.1-.5.3-2h.5l-.6 3.9h-.7l-.6-3.2v.8l-.1.4-.3 2zm3.3 0 .6-3.8h.5l-.5 3.3h1.7l-.1.5zm3.8 0 .2-1.4-.7-2.4h.6l.4 1.4.1.5.1-.2.1-.3 1-1.4h.5l-1.5 2.4-.2 1.4zm3.1 0 .6-3.8h.7l.7 3.1v-.5l.4-2h.5l-.6 3.9h-.7l-.6-3.2v.8l-.1.4-.4 2zm4.3 0q-.6 0-.8-.3t-.2-.8l.3-1.7q0-.5.4-.8t1-.3.7.3.2.8l-.3 1.7q0 .6-.4.8-.3.3-.9.3m0-.5.5-.1.3-.5.3-1.7-.1-.5-.4-.1q-.3 0-.5.2l-.2.4-.3 1.7v.5zm2.9.5.5-3.3h-1v-.5h2.7l-.1.5h-1l-.5 3.3zm3.1 0 .6-3.8h2.3v.5h-1.8l-.2 1.1h1.7l-.1.5H410l-.3 1.7zm4.3 0q-.6 0-.8-.3t-.2-.8l.3-1.7q0-.5.4-.8.3-.3.9-.3.5 0 .8.3t.2.8l-.3 1.7q0 .6-.4.8t-1 .3m0-.5.5-.1.3-.5.2-1.7v-.5l-.5-.1q-.3 0-.4.2l-.2.4-.3 1.7v.5zm2 .5.6-3.8h1.2l.6.1q.3 0 .4.4v.6q0 .4-.3.6-.1.4-.6.4l.6 1.7h-.7l-.4-1.6h-.6l-.2 1.6zm.9-2h.6q.3 0 .5-.3l.2-.4v-.5l-.5-.1h-.6zm4.2 2q-.5 0-.8-.3-.2-.3-.2-.8l.3-1.7q0-.5.4-.8t1-.3.7.3.2.8h-.5l-.1-.4q-.1-.2-.4-.2t-.5.2l-.2.4-.3 1.7v.5l.5.1.5-.1.2-.5h.6l-.3.6-.4.4zm3.1 0q-.5 0-.8-.3-.2-.3-.2-.8l.3-1.7q0-.5.5-.8.3-.3.8-.3t.8.3.2.8l-.2 1.7q-.1.6-.5.8-.3.3-.9.3m.1-.5.5-.1.2-.5.3-1.7-.1-.5-.4-.1q-.3 0-.5.2l-.2.4-.3 1.7.1.5zm1.9.5.6-3.8h.7l.2 1.2v.6l.3-.6.5-1.2h.7l-.6 3.8h-.5l.2-1.3.1-.5.1-.7.2-.5.1-.5-.9 1.8h-.5l-.3-1.8v1l-.1.6v.6l-.3 1.3zm3.1 0 .6-3.8h.7l.2 1.2v.6l.3-.6.6-1.2h.7l-.6 3.8h-.6l.2-1.3.1-.5.2-.7.1-.5.1-.5-.8 1.8h-.6l-.2-1.8v.4l-.1.6v.6l-.1.6-.2 1.3zm3.3 0 .6-3.8h2.3l-.1.5H433l-.2 1h1.5v.5h-1.6l-.1 1.3h1.6v.5zm3.1 0 .6-3.8h1.2l.6.1q.3 0 .4.4v.6q0 .4-.3.6-.2.4-.6.4l.6 1.7h-.6l-.5-1.6h-.6l-.2 1.6zm.9-2h.6q.3 0 .5-.3l.3-.4-.1-.5-.5-.1h-.6zm3.4 2q-.6 0-.8-.3t-.2-.8l.3-1.7q0-.5.4-.8t1-.3.7.3.2.8h-.5l-.1-.4-.4-.2-.5.2-.2.4-.3 1.7v.5l.5.1.5-.1.2-.5h.6l-.3.6-.4.4zm2 0 .2-.5h.7l.5-2.8h-.8v-.5h2.2v.5h-.8l-.5 2.8h.8v.5zm3 0 1.5-3.8h.8l.3 3.8h-.5v-1h-1.2l-.4 1zm1.1-1.5h.9l-.1-1v-.9l-.2.3q0 .3-.2.5zm2.3 1.5.7-3.8h.5l-.5 3.3h1.7l-.1.5zm5 0q-.6 0-.8-.3t-.2-.8l.5-2.7h.5l-.4 2.7v.5l.5.2.4-.2.2-.5.5-2.7h.6l-.5 2.7q0 .5-.4.8-.3.3-1 .3m3.2 0q-.6 0-1-.2-.2-.3-.1-.8h.5l.2.4.4.1.5-.1q.2-.1.3-.4v-.4l-.4-.2-.4-.2-.6-.4-.1-.7.2-.5.4-.4.7-.1q.5 0 .8.3t.2.7h-.6v-.4l-.5-.1-.5.1-.2.4v.4l.4.2.4.2q.4 0 .6.4.2.3.1.7 0 .3-.2.5l-.5.4zm2 0 .6-3.8h2.3l-.1.5h-1.7l-.2 1h1.5v.5h-1.5l-.2 1.3h1.7l-.1.5z" style="fill:#ccc"/><path d="M400 750a350 350 0 1 1 350-350 350.4 350.4 0 0 1-350 350" style="fill:#182865"/><path d="M400 723.5A323.6 323.6 0 1 1 723.6 400 324 324 0 0 1 400 723.5" style="fill:#c1ad76"/><path d="M400 710.3A310.3 310.3 0 1 0 89.7 400c.2 171.3 139 310 310.3 310.3" style="fill:#fff"/><path d="M697 400a297 297 0 1 1-297-297c164 0 297 133 297 297" style="fill:#182865"/><path d="M266.4 665.3a297 297 0 0 0 267.2 0V134.7a298 298 0 0 0-267.2 0z" style="fill:#0056a4"/><path d="M465.2 207.9H156.4q-12.5 15.7-22.9 32.8h201.6c8 0 12 6.6 0 14.7L90.4 420.7q.6 10.4 2 20.7h50S458.9 228 468.7 221.6c8.5-5.7 4.8-13.7-3.3-13.7m-7.7 197.6c-8 0-12-6.6 0-14.7l212.7-143.4q-11.7-20.7-26.5-39.5h-12.4c3 4.5 0 10-7.1 14.7L299.6 441.4h408q2.3-17.8 2.6-35.8zM587 207.9h-75.7c3 4.5 0 9.9-7.1 14.7L179.6 441.4h82.9l324.4-218.7c12-8.1 8-14.7 0-14.7" style="fill:#fff"/><path d="M197.7 519v1.4l-12.8-.3-.3-30.2h99.2v12.8L216 568.8h17.5q13 .4 25.7-1.4 4.5-1.2 7-5 2-4.2 2.9-8.6v-5.5h15.2l-1 31.5h-102V569l71-67.2h-33.5q-5.7 0-11.2 1.4-3.5.8-5.8 3.5-3.6 5.7-4.1 12.5m160.5 26.9h-8.5q-.3-3-1-6a20 20 0 0 0-1.7-4.6 7 7 0 0 0-4-3q-3.7-1-7.5-1h-17V548h7q1.6 0 3.1-.3 1.2-.3 2-1a4 4 0 0 0 1.2-2.1q.4-1.5.4-3.2v-3.2h8.7v27h-8.7v-3.4q0-1.5-.4-3.2-.2-1.1-1-1.9a4 4 0 0 0-2.3-1q-1.8-.3-3.7-.3h-6.6v18.3h18.6q3 0 5.6-1a9 9 0 0 0 3.8-3q1.8-2.2 2.4-5 .8-3.9.7-7.9h9.2l-.5 24.3h-65.8v-7h7.7q.8 0 1.3-.6t1-1.2q.3-.9.2-1.9v-34.7q0-1-.3-1.7-.2-.8-.9-1.2l-1.5-.7q-1.2-.3-2.5-.2h-5v-7h66zm48.1 27.1q4.1.3 8.2-1 2.8-1.2 4.2-3.9 1-2.7 1.6-5.7.6-3.4.7-6.7h9.1v24.8h-63.4v-7h7.9q.7 0 1.3-.6.6-.4 1-1.2l.2-1.9v-34.7q0-1-.3-1.7l-.9-1.2-1.6-.7-2.4-.2h-5v-7H404v7h-5.8q-1.3 0-2.5.4l-1.6.7q-.6.5-.9 1.2-.3.9-.2 1.9v38zm65.9-35.4.6-1.2.4-1 .2-.8v-.7l-.2-1.2-.7-.8-1.2-.5h-6.8v-7.3H493v7.3q-2.4 0-4.6.6-1.5.3-2.7 1.2-.8.8-1.5 1.8l-1 2.3v.3q-.1.3 0 .4-.1.2 0 .4v.8q-.1 0 0 .4v.8l-18.4 40.3h-14.5l-19.8-42.7-.6-1-.4-1-.6-.9-.4-.7q-.7-.9-1.5-1.6l-1.7-.8-2.4-.3h-3.4v-7.5h35.3v7.3h-4.6l-2 .3q-.8 0-1.3.3l-.8.6-.2 1v2l12.8 29.6zm26.2-13.8h34.3v7h-4.2l-2.5.5-1.5.6q-.6.4-1 1.2l-.2 1.9v34.4q0 1 .3 2 .3.8.9 1.2.7.6 1.5.7h6.7v7h-34.3v-7h6.4q.8 0 1.4-.6t.9-1.2q.3-.9.3-1.9v-34.7q0-1-.3-1.7-.3-.8-.9-1.2l-1.6-.7q-1.2-.3-2.5-.2h-3.8zm63.1 38.7v.8l-.2.4v1l-.4.7-.2.5v1.2l-.5 1-.3 1q0 .6-.2 1v2q.3.6.9.7l1.5.3h5.6v7H539v-7h3.9l2.1-.5q1.2-.4 2-1.5 1.1-1.2 2-2.6l.3-.8.4-.7v-1.5l.3-.4.3-.5v-.4l.2-.5q.4-.4.6-1l.4-1 17-37.1h14.7l20.1 40.5.3.8q0 .3.3.5l.2.6v.5l.4.5.2.5v.5l.3.4q.7 1.2 1.7 2.2.8.8 1.9 1.4 1.2.6 2.6.9l4 .2v7h-35.9v-7.1h6.4l1.3-.4q.6 0 1-.7.4-.4.4-1v-.8q0-.5-.3-1.1l-.5-1-.4-1.2-.2-.3v-1.1l-.4-.9-.4-.7-.4-.7-.3-.6zm11.3-26.4-8.1 17H582zm-251.3-38.1h-4.2v-2.4l-.7-2q-.6-.9-1.6-1.3-1.6-.4-3.2-.4h-7.5v6.8h4.5l.8-.4q.4-.3.5-.8v-2.6h4v11.1h-4v-2.8q0-.5-.5-.8l-.9-.4h-4.4v7q0 .3.4.5l.7.2h4.3v3h-17.5v-3.1h3.5l.6-.3q.3-.1.4-.5v-15.9q0-.3-.4-.5-.3-.3-.7-.3h-3.4v-3h29.3zm31 .2h-4.3q-.1-1.5-.8-2.7a6 6 0 0 0-1.6-2.1q-1-.9-2.4-1.3-1.5-.5-3.2-.4t-3.6.5q-1.6.6-2.7 1.8t-1.7 2.8q-.7 1.8-.6 3.7t.5 3.9q.5 1.5 1.7 2.8t2.7 1.8a11 11 0 0 0 6.7.2 7 7 0 0 0 2.5-1.3l1.8-2q.8-1.4 1-2.9h4.7q-.3 2.4-1.5 4.3-1.2 2-3 3.2-2 1.3-4.3 2a22 22 0 0 1-11.5-.3q-2.6-.8-4.8-2.6-2.1-1.5-3.3-3.9-1-2.2-1-4.8a11 11 0 0 1 4.2-9.2q2.3-1.7 5-2.6 3-1 6.3-.9h3.1q.8 0 1.4.3l1.4.4.7.4.7.3.7.4.8.4 1-2h3.5zm42.5 5 7.3-14.4h13.8v3h-3.5q-.4 0-.7.2l-.4.5v15.9q0 .3.4.5l.7.3h3.4v2.8h-16.6v-2.4h3.5l.6-.3.4-.5v-14.2l-9.1 18h-3.4l-9.1-18.4V509q0 .3.4.5l.7.2h3.1v3H373v-3h3.5l.6-.2.4-.5v-15.9l-.4-.5q-.4-.3-.8-.3H373v-3h14.4zm30.9 1.8v3.5l.4.2h3.2v3h-13v-3h2.7l1-.6.8-1v-1.8l7.7-15.4h6.7l9.2 16.9v.7c0 .3 0 0 0 0l.7 1 .9.5 1.2.4h1.8v2.8h-14.9v-3h3.5l.5-.2V506zm5-10.7-3.7 7.7h8zm46.9 3.9h-4.3q0-1.5-.7-2.7a7 7 0 0 0-4-3.4 12 12 0 0 0-6.8.1q-1.6.6-2.8 1.8a8 8 0 0 0-1.7 2.8q-.6 1.8-.6 3.7t.6 3.9q.5 1.5 1.6 2.8t2.8 1.8q1.7.6 3.6.6 1.5 0 3-.4a7 7 0 0 0 4.3-3.4q1-1.2 1.1-2.8h4.6q-.3 2.4-1.5 4.3a11 11 0 0 1-3 3.2q-1.9 1.3-4.2 2a23 23 0 0 1-11.5-.3 15 15 0 0 1-4.9-2.6q-2.1-1.5-3.2-3.9-1.2-2.2-1-4.8a11 11 0 0 1 4.2-9.2q2.2-1.7 5-2.6 3-1 6.2-.9h3.2l1.3.3 1.5.4.7.4.6.3.8.4.7.4 1-2h3.4zm15.9 3.5v6.9l.4.5.7.2h3.1v3h-16.2v-2.7h3.5l.6-.3.4-.5v-15.9l-.4-.5-.7-.3h-3.4v-3h16.1v3H495l-.7.3-.4.5v5.8h11.7V493q0-.3-.3-.5l-.8-.3h-3v-3h16.2v3h-3.4l-.8.3-.3.5v16q0 .3.3.5l.8.3h3.4v2.8h-16.2v-2.8h3.1l.7-.3.3-.5v-6.9zm27.5-12.9h16v3h-2.9q-.5 0-.8.2l-.4.5v15.9l.4.5.8.3h3v2.8h-16v-2.4h3.5q.3 0 .5-.3.3-.1.5-.5v-15.9l-.5-.5-.6-.3h-3.5zm19.8 0h19.6q2.8 0 5.6.8 2.3.7 4.2 2.2 1.7 1.5 2.7 3.6a13 13 0 0 1-.1 9.6q-1 2.3-3 3.8a13 13 0 0 1-4.5 2.5q-3 1-6 .8h-18.2v-2.5h3.5l.6-.3q.4-.2.4-.5v-15.9l-.4-.5q-.3-.3-.7-.3h-3.4zm15.8 20.5h2.6l1.6-.3q.8-.1 1.3-.6.8-.3 1.2-.9l1.1-1.4a11 11 0 0 0 1.3-3.6v-2.4q0-1.7-.5-3.4a7 7 0 0 0-1.5-2.5 6 6 0 0 0-2.7-1.7 14 14 0 0 0-4.2-.5h-4.2v17.5zm27.6-4.3v2.7q0 .5.5.7h3.3v3h-14.4v-3h2.8l1-.6.7-1v-1l.3-.3v-.5l7.7-15.4h6.8l9.1 16.8v.8q.6 1 1.7 1.5.5.3 1.2.3h1.8v3h-16.3v-3h3.4l.5-.3v-1.3l-.2-.4v-1.4zm5.2-10.7-3.8 7.7h7.9z" style="fill:#c1ad76"/><path d="M323.3 613h-3v-1.4l-.9-.8a7 7 0 0 0-2.5-1q-.6-.3-1.3-.3h-2.2q-.7.1-1.4.5l-.8.7q-.4.4-.4 1t.4 1q.5.5 1.1.7l1.7.4 2 .4h2a22 22 0 0 1 5 1.6q1 .4 1.6 1.5.6 1 .5 2.3 0 1.4-.5 2.7-.6 1.1-1.7 1.8a9 9 0 0 1-2.8 1.2 15 15 0 0 1-3.7.3H314l-1.6-.3-1.6-.6-1.3-.8-.7 1.4h-2.5v-7.5h2.2v1.2l1 .8 1.3.7 1.6.4h3.4l1.3-.5.9-.7.2-1v-.6l-.2-.5-.6-.4-1-.3H314l-3.2-.7a13 13 0 0 1-4.5-1.5q-1-.5-1.4-1.4a6 6 0 0 1 .1-4.7 5 5 0 0 1 1.8-1.9q1.3-.9 2.7-1.2 1.8-.4 3.7-.4a11 11 0 0 1 3.4.3 9 9 0 0 1 2.8 1.3l.5-1.2h2.5zm2.9-6.5H338v2.2h-2.7l-.3.4v12.1q0 .3.3.4h2.7v2.2h-11.8v-2.2h3q.3 0 .3-.3v-11.8q0-.3-.3-.4h-3zm34.4 12.3v-9.3q0-.3-.3-.4h-2.8v-2.3h9.6v2.3h-2.6l-.3.4v14.9h-5.3L348 611.8v9.8q0 .3.3.4h3v2.2h-10.2V622h3.1l.2-.3v-12.2l-.2-.4h-3.1v-2.3h8.9z" style="fill:#fff"/><path d="M387 613.7h-3.2q0-1-.5-2t-1.2-1.7-1.8-1l-2.3-.3q-1.3 0-2.6.4-1.2.5-2 1.4t-1.3 2.1a9 9 0 0 0-.4 2.8q0 1.5.4 3 .5 1.2 1.2 2.1a5 5 0 0 0 2 1.4q1.4.4 2.7.4 1.1 0 2.2-.3a5 5 0 0 0 3.1-2.5l.8-2.2h3.3a9 9 0 0 1-1 3.3q-1 1.5-2.2 2.4-1.4 1-3.2 1.5-2 .5-4 .5-2.2 0-4.6-.7-2-.6-3.5-1.9t-2.4-3a9 9 0 0 1 2.3-10.7q1.8-1.3 3.7-2 2.2-.7 4.6-.7h2.2l1.1.3q.6 0 1 .3l.5.3.5.2.5.3.6.3.7-1.5h2.6zm24.2-.2h-2.9a8 8 0 0 0-.8-3.4q-.5-.7-1.4-1-1.2-.3-2.5-.2H398v5.2h3.5q.4 0 .7-.4.3-.2.4-.6v-2h2.8v8.5h-2.8v-2.1l-.4-.6q-.4-.3-.7-.3H398v5.7h6.3q.9 0 1.8-.3t1.3-1q.6-.6.8-1.6V617h3v7.7h-22v-2.2h3.1l.2-.4v-12.6l-.2-.4H389v-2.3h22zm21.8 7.3v.6q0 .3.3.4h4.1v2.3H423v-2.3h3.9q.3 0 .4-.4v-9.7h-4.6v-2.4h.4l2.2-.3q.9-.2 1.6-.6a5 5 0 0 0 2-2.5h3.6zm17-3.7h-4.3q-1.5 0-3-.5-1.4-.4-2.3-1.2-.9-1-1.4-2-.5-1.2-.4-2.4 0-1.3.6-2.4.6-1.2 1.7-2a9 9 0 0 1 2.7-1.3 14 14 0 0 1 7.2.1 7 7 0 0 1 4.6 4.4q.6 1.9.6 3.7 0 2.4-.7 4.6-.5 1.8-2 3.3a8 8 0 0 1-3.1 2 13 13 0 0 1-4.2.6q-1.5 0-2.8-.3-1 0-2.1-.7l-1.4-1.1q-.5-.7-.5-1.5l.3-.9.6-.8 1-.5h2.2q.4 0 .9.4l.6.7v1.7l-.3.2h1.5l2.1-.3a4 4 0 0 0 2.5-2.9q.4-1.2.4-2.4l-.5.2m-5.5-3.7.6 1.2q.4.6 1 .8t1.3.3h1.3l1-.7.5-1.2v-3.2q0-.7-.6-1.2l-1-.8h-2.6q-.6.3-1 .8l-.5 1.1q-.1.7 0 1.6-.1.7 0 1.6m16.7 2.6h-.4l-.4-.2h-.3l-.8-.8-.6-.7-.3-.9v-1q0-1.1.6-2.2a6 6 0 0 1 1.8-1.7q1.3-1 2.8-1.1 1.8-.4 3.6-.4 1.5 0 3 .3 1.4.3 2.5 1 .9.4 1.5 1.3t.6 1.8v1q0 .6-.3 1l-.7.7-1 .7a9 9 0 0 1 3.2 1.8q.5.6.8 1.3t.3 1.4q0 1.4-.6 2.4a6 6 0 0 1-1.9 2q-1.3.8-2.8 1.1a19 19 0 0 1-7.4 0 7 7 0 0 1-2.6-.9q-1-.6-1.7-1.6-.6-1.1-.6-2.2v-1q0-.6.4-1l.7-.7 1-.7h.8-.5m2.7 1.6-.5.4-.4.3-.3.4-.4.7v.9l.2 1.2 1 1q.7.4 1.5.6h3.7l1.3-.5 1-.7.2-1q0-.5-.3-.8l-.9-.8-1.3-.7-1.3-.5-.8-.3h-2l-.6.4m5.8-4.3.7-.6.4-.7v-.7a2 2 0 0 0-1.1-1.8l-1.3-.5h-3.4q-.8 0-1.3.5-.5 0-.8.6-.3.3-.3.9v.7l.3.3.5.3h3.9l1-.6m20.7 5.1h-3.5q-1.5 0-3-.5-1.4-.4-2.4-1.2-.8-1-1.3-2-.5-1.2-.5-2.4 0-1.3.6-2.4.6-1.2 1.8-2a9 9 0 0 1 2.7-1.3 14 14 0 0 1 7.1.1 8 8 0 0 1 4.6 4.4q.6 1.9.6 3.7 0 2.4-.6 4.6-.7 1.8-2 3.3a8 8 0 0 1-3.2 2 15 15 0 0 1-7 .3q-1 0-2-.7-.9-.5-1.4-1.1t-.5-1.5v-.9l.7-.8 1-.5h2.2l.9.4.6.7v1.7l-.3.2h1.5l2-.3a4 4 0 0 0 1.6-1q.6-.9 1-1.9l.3-2.4-.5.2m-5.5-3.7.6 1.2q.4.6 1 .8l1.3.3h1.3l1-.7.5-1.2q.3-.7.2-1.5t-.2-1.7q0-.7-.6-1.2-.4-.5-1-.8h-2.6q-.6.3-1 .8l-.6 1.1v3.2" style="fill:#fff"/></svg>