<svg xmlns="http://www.w3.org/2000/svg" viewBox="-260.1 430.1 350.1 365.2"><path fill="#fff" d="M-87.1 793.4q-1.3-.1-1.5-1-.3-1.2-1.3-1c-1 .2-1.9-.9-2.7-2s-2-2-2.7-2-1.3-.5-1.3-1-.7-1-1.5-1-2.1-.9-2.7-2q-1.2-1.8-2.4-2c-.6 0-2.5-1.3-4.3-3s-3.6-3-4.1-3q-1-.1-1-1-.1-1.2-1.1-1c-1 .2-2.4-1.3-3.9-3s-3.2-3-3.7-3-1.5-.9-2.3-2-1.9-2-2.5-2-1.7-.9-2.5-2-1.9-2-2.5-2q-1.1-.2-2.5-2c-1.4-1.8-1.9-2-2.5-2q-1.1-.2-2.5-2c-1.4-1.8-1.8-2-2.3-2s-3.5-2.7-6.7-6-6.2-6-6.5-6-5-4.5-10.3-10l-14-14.7-7-7.9c-1.5-1.7-3.4-4.1-4.2-5.4s-2.7-3.6-4.2-5.2-2.8-3.3-2.8-3.7-.9-1.8-2-3.1l-2.9-3.5c-.5-.6-1.5-2.1-2.2-3.4s-1.7-2.9-2.2-3.4l-2.7-3.3c-1-1.2-2.6-4-3.6-6.2s-2.1-4-2.4-4-3.8-6.6-7.7-14.8L-233 628a109 109 0 0 1-6.2-16.5c-.8-1.9-2.3-6.9-3.5-11l-3-10.5-2.5-8.7c-.9-3.1-2.1-8.5-2.6-12l-1.9-11.8-3.5-25A308 308 0 0 1-259 485c-.1-15.4.2-29.3.6-30.8.8-2.8.9-2.8 6-2 2.9.5 19.2.8 36.2.8 18 0 35.2-.6 41-1.3 5.5-.7 13.2-1.5 17-1.8s7.4-1 8-1.5 2.6-.9 4.6-.9 4-.4 4.6-.9 2.8-1.2 4.9-1.5l7.8-1.2c2.1-.3 4-1 4.3-1.5s2.1-.9 3.9-.9c1.9 0 3.7-.4 4-1s2.2-1 4.1-1 3.4-.4 3.4-1 1.8-1 4-1 4-.4 4-1 1.6-1 3.5-1 3.5-.4 3.5-1 1.3-1 2.9-1 3.2-.4 3.6-1 3-1 5.9-1c3.2 0 6.9.8 9.4 2 2.3 1.1 4.8 2 5.7 2s1.5.5 1.5 1 1.4 1 3 1 3 .5 3 1 1.4 1 3 1 3 .5 3 1 1.4 1 3 1 3 .5 3 1 1.1 1 2.5 1 2.5.5 2.5 1 1.8 1 4 1 4 .5 4 1 1.5 1 3.4 1 3.7.5 4.1 1 2.4 1 4.6 1 3.9.5 3.9 1 1.7 1 3.8 1 4.2.4 4.8.9 8.2 1.2 17 1.5l41.4 1.2c17.7.4 25.7.3 26.5-.5.6-.6 3.2-1.1 5.8-1.1q4.6 0 6 1.7c1 1.2 1.5 6.6 1.7 21.8a264 264 0 0 1-2.3 43.6 314 314 0 0 1-7.6 49.5l-3 13c-.6 2.2-1.9 6.7-3 10s-2.4 7.6-2.8 9.5a94 94 0 0 1-3 9l-3 8-3.8 9-6.3 13.8c-1.8 4-3.7 7.2-4.1 7.2s-.8.7-.8 1.5-.8 3.1-1.7 5-2 3.5-2.4 3.5-1.3 1.4-1.9 3-1.6 3-2 3-1.8 2.2-3 5-2.7 5-3 5-1.3 1.4-2 3-1.6 3-2 3-1.3 1.4-2 3-2.5 4.4-4.1 6.1-2.9 3.4-2.9 3.9-1.7 2.6-3.8 4.8-4.4 5-5.2 6.2-2.7 3.6-4.2 5.4l-6 6.9a576 576 0 0 1-25.3 25.8c-.3 0-3.2 2.7-6.5 6s-6.4 6-6.9 6-1.1.5-1.1 1-.5 1-1.1 1-2.4 1.4-3.9 3-3.3 3-3.9 3-1.1.5-1.1 1-.6 1-1.3 1-1.9.9-2.7 2-1.9 2-2.5 2-1.7.9-2.5 2-1.9 2-2.5 2-1.7.9-2.5 2-2.2 2-3.2 2-2 .9-2.3 2-1.3 2-2.1 2-1.4.5-1.4 1-.8 1-1.8 1-2.4.9-3.2 2-2 2-2.7 2-1.3.5-1.3 1-.6 1-1.3 1-2.3.9-3.5 2c-1.5.8-3.2 1.7-4 1.7"/><path fill="#db241c" d="M-86.5 795.3c-.7 0-8.7-5.7-17.7-12.6l-26.2-20.5a455 455 0 0 1-40.6-37.3 466 466 0 0 1-30-36.1 321 321 0 0 1-10.3-15.5 364 364 0 0 1-23.7-47.5c-2.8-7.1-6.3-17.1-7.7-22l-5-18a359 359 0 0 1-10.1-60 790 790 0 0 1-2.1-70.8l.7-2.6 28.7.6c18.7.4 33.8.2 43.2-.6 8-.7 20.4-2 27.6-3.1a622 622 0 0 0 23-4 662 662 0 0 0 48.1-12.6l8.2-2.6 18.5 6.6c10.2 3.6 23.2 7.9 28.9 9.5s15 3.8 20.8 5a242 242 0 0 0 40.4 4.6c7.1.3 22 .1 33-.5s22-1.4 24.4-1.7l4.4-.6-.5 32.9c-.4 25.6-1 36.5-2.6 49-1.2 8.9-3.2 21.7-4.6 28.5s-4 18-5.9 24.9-5.6 18.4-8.1 25.5c-2.6 7.1-7.9 19.7-11.9 28s-10.5 20.4-14.5 27-10.4 16.4-14.3 21.9a353 353 0 0 1-33.7 40 524 524 0 0 1-24.1 22.9 494 494 0 0 1-47.4 36.6 46 46 0 0 1-8.9 5.1m.4-15c.4 0 5.3-3.3 10.9-7.2s16-12 23.2-17.7a481 481 0 0 0 50.6-48.5c4.2-5 10.4-12.6 13.7-17s8.3-11.4 11.1-15.5 8-12.6 11.6-18.7a344 344 0 0 0 21.1-45.6A355 355 0 0 0 76.7 504c.6-10.5 1-22.8.8-27.4l-.3-8.4-34-.1c-27.6-.1-36.1-.4-45-1.9a359 359 0 0 1-68.7-19l-9.7-3.5-10.3 3-25.8 6.9a459 459 0 0 1-58.2 10.6 407 407 0 0 1-44.2 1.7h-28.9l.6 24.6c.3 13.5 1.3 31.1 2.1 39s1.8 16 2.1 18l2.6 14.6a366 366 0 0 0 15.1 54.5 371 371 0 0 0 22.8 47.6 313 313 0 0 0 41.7 53.4 484 484 0 0 0 44.4 40.2l19.4 15.2c5.5 3.8 10.3 7.3 10.7 7.3m-.2-9a1047 1047 0 0 1-42.1-32.5 365 365 0 0 1-41.9-40.5 288 288 0 0 1-36.4-54.8 296 296 0 0 1-22.6-63 418 418 0 0 1-11.6-82.3c-.3-8-.8-16.9-1-19.8l-.5-5.2h26.3c15.7 0 32.1-.6 40.8-1.5 8-.8 20.1-2.4 27-3.6a451 451 0 0 0 55.6-13.9l13-4.2 14.5 5.4A302 302 0 0 0-20 469.5c6.2 1.4 15.3 3 20.2 3.6a491 491 0 0 0 59.2.4l8.4-.7v14.4a452 452 0 0 1-5 60.8 399 399 0 0 1-10.1 44.3 340 340 0 0 1-17.9 44.8 325 325 0 0 1-64.7 87 552 552 0 0 1-56.4 47.2m-.2-10.1c.7 0 5.5-3.2 10.5-7.1s13.7-11 19.2-15.7 15.1-13.5 21.4-19.6 15.3-15.5 20.1-21S-3.6 683.9 0 679.2a309 309 0 0 0 21.5-32.8c3-5.3 6.8-12.5 8.5-16.1a366 366 0 0 0 13.1-33.1 328 328 0 0 0 15-73.4c.8-8.8 1.6-21.8 1.8-28.9l.3-12.9-28.5-.1c-22-.1-31-.5-39.4-1.9-6-1-15-2.8-20-4.1a407 407 0 0 1-21.1-6.4l-21.7-7.6-9.7-3.6-12.3 4A371 371 0 0 1-209.1 481l-25.3.6.5 7.6 1.1 17.1a493 493 0 0 0 7.4 57c1.6 8 4.5 20.1 6.5 27s5.4 17.4 7.6 23.5a308 308 0 0 0 25 50.5c3.4 5.2 8.3 12.2 10.8 15.5a378 378 0 0 0 30.8 34.5 515 515 0 0 0 44.4 37.3 95 95 0 0 0 13.8 9.6m0-5.9a102 102 0 0 1-14-11.4c-.4-.6-.7-40.1-.8-87.8v-86.8l14.7.3 14.8.3.3 85.8.3 85.8-7.2 7c-4.1 3.6-7.7 6.8-8.1 6.8m-41-87.8-.3 56.8L-143 709l-15.3-15.2v-46c0-25.3.3-53.1.7-61.7l.7-15.8h28.4l.7 20.2c.3 11.2.5 45.8.3 77m93.7 39.9-10.5 10.9-.3-73c-.1-40.1-.1-73.4.1-74s5.7-1 13.8-1h13.4v119.6l-3 3.4zm-149.4-58.7c-.4.3-4.1-6.1-8.1-14.2s-9-18.9-11.1-24.2-4.7-12.3-5.8-15.6-3-9.6-4.1-14l-2.6-9.8c-.5-1.7.5-1.8 15.8-1.5l16.3.3.2 39.2c.1 21.7-.1 39.5-.6 39.8m195.6-5c-1.2 1.6-1.5-.4-2-15.5-.4-9.6-.7-26.1-.7-36.6v-19.2h16c8.8 0 16 .2 16 .4l-5 15.6a483 483 0 0 1-8.6 23.8 311 311 0 0 1-15.7 31.5m30-77.5q-1.2 0-2.3-.4c-.5-.2-58.8-.5-129.4-.8-104.9-.4-128.5-.7-129.2-1.8-.4-.7-1.7-6.3-2.9-12.4s-2.5-16.5-3.1-23.1-.9-17.8-.8-25l.3-13 18.5-.7c10.2-.4 24.6-1.2 32-1.8s18.2-1.8 24-2.7c5.8-.8 16.3-2.9 23.5-4.5s20.6-5.5 29.9-8.6l16.9-5.7 4.1 1.6 14.7 5.6c5.8 2.2 16.6 5.6 24 7.6a326 326 0 0 0 23.7 5.1 452 452 0 0 0 53.7 3.5l10.4-.1c1.2.1 1.3 3.6.8 20.8a222 222 0 0 1-6.8 53.9q-.9 2.3-2 2.5M-6.7 558l45.1.2L40 549a422 422 0 0 0 2.7-18.2c.6-5 1.1-14.6 1.3-21.5l.3-12.5-21.5-.6c-11.8-.3-26.9-1.4-33.5-2.4s-18.8-3.5-27.2-5.6-21.3-6.2-28.8-9l-13.6-5.1-16.7 5.5c-9.2 3-22.1 6.7-28.7 8.1-6.6 1.5-18 3.5-25.4 4.6s-20.4 2.4-29 2.9l-26.5 1.7-10.9.6.6 19.1c.3 10.6 1.3 23.1 2.2 28.1s2.1 9.8 2.6 10.7c.9 1.7 5 1.8 80.7 2.1zm-182.1-15.7c-4.2 0-5.5-.3-5.5-1.5q.2-1.3 2-1.5c1.9 0 2-.7 2-13.6s-.1-13.6-2-14.1q-1.8-.5-2-1.4c-.2-.9 3.1-.9 6.9-.9h6.9l4.3 9.5c2.4 5.2 4.6 9.7 5 10 .4.2 2.6-4.1 5-9.5l4.3-10h6.8c3.8 0 6.8.4 6.8.9s-.9 1.1-2 1.4c-1.9.5-2 1.4-2 14.1 0 12.9.1 13.6 2 13.6q1.8.2 2 1.5c0 1.2-1.5 1.5-7.9 1.5-4.5 0-8.2-.5-8.6-1.1q-.4-1 1.4-1.6c2-.5 2.1-1.2 2-12.2s-.2-11.4-1.5-8.6l-4.9 10.8c-2.9 6.6-3.8 7.8-5.9 7.8-1.3 0-2.9-.6-3.4-1.2s-2.7-5.2-4.7-10-4.1-8.8-4.6-8.8-.9 5-.9 11c0 10.3.1 11 2 11q1.8.2 2 1.5c0 1-1.3 1.4-5.5 1.4m50.2-.2c-2.1.3-2.7-.2-3.3-2.3a5 5 0 0 1 .6-4.1 4 4 0 0 1 3.3-1.2c1.1.2 2.5 1.1 3.1 2q1.2 1.8 0 3.5c-.6 1-2.3 1.9-3.7 2.1m16.4.2c-2.6 0-5.1-.3-5.4-.7q-.7-.7-.7-1.5.2-1 2-.8c1.9 0 2-.7 2-14s-.1-14-2-14q-1.8 0-2-1c-.2-1 3-1 7-1 6.4 0 7.1.2 7.9 2.2.5 1.2 2.5 5.9 4.6 10.2l3.7 8 4.4-9.4c2.4-5.2 4.4-9.8 4.4-10.2 0-.5 3.1-.9 7-.9s7 .4 7 .9-.9 1.1-2 1.4c-1.9.5-2 1.4-2 14.1 0 12.9.1 13.6 2 13.6q1.8.2 2 1.5c0 1.2-1.5 1.5-7.9 1.5-4.4 0-8.2-.5-8.6-1q-.3-1 1.9-2c2.5-1 2.6-1.1 2.6-12 0-6.1-.3-11-.8-11s-2.8 4.6-5.3 10.2c-4 9.1-4.8 10.3-7.3 10.6-2.6.3-3-.3-6.6-8l-4.5-10.3q-.7-2.4-1.6-.5a41 41 0 0 0-.9 10.7c0 9 .1 9.3 2.5 10.2q2.3 1 1.9 2c-.3.7-2.7 1.2-5.3 1.2m50 0c-1.5 0-3.1-.3-3.5-.7s-.7-1.6-.7-2.8.5-2.7 1.2-3.3c.7-.7 2-1.2 2.9-1.2s2.2.7 2.9 1.5 1 2.6.6 4c-.4 1.9-1.2 2.5-3.4 2.5m24.9 0c-12.7 0-15-.2-15-1.5q.2-1.3 2-1.5c1.9 0 2-.7 2-14s-.1-14-2-14q-1.8 0-2-1c-.2-1 5.7-1 15-1h15v3.5q0 3.5-1.4 3.5-1.3-.2-1.9-2c-.5-1.7-1.4-2-7.1-2h-6.6v10h3.9c3.1 0 4.1-.4 4.6-2.1q.8-1.8 1.8-1.7c.6.2 1.3 2.3 1.5 4.6.2 2.4-.2 4.9-.9 5.7-1.1 1.3-1.4 1.1-2.6-1.1-1.1-2.1-2-2.6-4.6-2.3l-3.2.3-.3 6.8-.3 6.8 6.8-.3c6.2-.3 6.8-.5 7.1-2.5q.5-2 1.8-2.2 1.4-.1 1.4 4v4zm26.1 0c-1.5 0-3.1-.3-3.5-.7s-.7-1.6-.7-2.8.5-2.7 1.2-3.3c.7-.7 2-1.2 2.9-1.2s2.2.7 2.9 1.5 1 2.6.6 4c-.4 1.9-1.2 2.5-3.4 2.5m27.2-.1a21 21 0 0 1-9.6-2 16 16 0 0 1-5.7-5.2q-2-3.2-2-9c0-3.2.5-6.8 1.1-8s2.3-3.4 3.7-4.9a15 15 0 0 1 7.9-3.9 22 22 0 0 1 10.8 0c3 .7 5.9 1.8 6.6 2.6s1 2.6.8 4.2c-.2 1.5-.9 2.8-1.5 2.8s-2.2-1.6-3.5-3.5c-2-2.9-3-3.5-6.6-3.8s-4.6.1-6.6 2.3a14 14 0 0 0-3.1 7.5c-.4 2.7-.4 6.8 0 9s1.7 5.3 3 6.7c1.7 2 3.2 2.6 6 2.6 3.1 0 4.3-.6 7-3.8 1.9-2.2 3.7-3.5 4.4-3.1q1 .7 1.1 1.9c.1 1.2-.8 2.1-1.8 3.3s-2.7 2.6-3.9 3.2c-1.3.7-4.9 1.2-8.1 1.1m23.7.1c-2.3 0-3.1-.5-3.6-2.5-.4-1.4-.1-3.1.6-4s2-1.5 3-1.5 2.3.7 3 1.5 1 2.6.6 4c-.5 1.9-1.3 2.5-3.6 2.5"/></svg>