<svg xmlns="http://www.w3.org/2000/svg" xml:space="preserve" width="708.7" height="813.4" viewBox="0 0 708.7 813.4"><g fill-rule="evenodd" clip-rule="evenodd"><path d="M0 148v.5c3.6 2.2 13.2 12.6 16.9 16.1 1.7 1.7 2.4 2.8 4 4.3l11.3 13.8a162 162 0 0 1 23.3 43.2c13.4 37.3 9.6 78.5 2.2 117.2-13.8 72.6-37.8 140.6-15 215.3 1.2 3.8 3.4 9 4.2 12.5 1.1 1.4 5.6 13.2 7 16a239 239 0 0 0 31 49c4 5.2 6.7 8 10.6 12.5l5.5 6.1 17.2 17.1c4.9 4.2 6.2 5.7 12.3 10.6C153.9 701 185 713.8 212 727c4.2 2 29.6 13.6 31 15a563 563 0 0 1 58.7 32.5c4.9 3 9.2 6.2 13.8 9.1l6.6 4.7 6.7 4.8 12.9 10 12.3 10.4h.4a412 412 0 0 1 65.6-47.2c37.2-22.3 74-37.1 112.5-56.3a263 263 0 0 0 48.1-29.6 325 325 0 0 0 30.4-29.5l1.9-2c17.2-20.7 20.8-24.3 35.3-49a201 201 0 0 0 17-39.6c30.5-98.3-18-184.5-21-269.7-.5-16.5 1-35.4 5-51.5 5-20.3 13.3-37.8 25.7-54.4l20.1-23.4c2.2-2 9-9.6 11.2-10.7 1-1.2 1.2-1.4 2.4-2v-.4c-1.1-1-1.5-1.6-2.4-2.7l-2.2-2.8c-1.3-.8-1.3-1-2.2-2l-36.1-42.2L662 94c-1.3-1.4-2.6-3.3-3.9-4.6l-49.9-58.1-3.7-4.4-3.8-4.4-4-4.6L581.5 0a559 559 0 0 1-63.7 29.2c-4.5 1.7-19.2 7.4-23 8.1-3 1.3-7.6 2.5-10.8 3.5a438 438 0 0 1-278.7-6.4 541 541 0 0 1-59.6-25.1L127 0q-1.8 2.4-4 4.8l-51.6 60c-2.6 3.3-5.2 6.1-7.9 9.3-2.6 3-5.2 6.4-8 9.4l-31.7 37C20.3 125 12 134 7.8 139z"/><path fill="#c01c11" d="M502 49.1c-1.1 1.9-11.8 14-13.7 16.5L447 114.7c-6.3 8-14.3 16.7-20.7 24.6l-55 65.6-6.8 8.1-82.4 98.2c-2.3 3-4.6 5.4-7 8.3L254.7 344l-7 8.3-48 57.3c-6.3 7.5-14.7 17-20.5 24.4-7.7 9.6-19.3 23-27.5 32.8L62.4 573c.3 3.6 11.6 23.9 13.7 27.3a286 286 0 0 0 35.9 46.5c2.8 2.4 11 11.5 15.4 15.3l11.1 9.7c20 16.4 62.4 35.5 87 46.8 2.8 1.3 12 6.1 14.2 6.5l18.1-21.7 3.1-3.7 15.4-18.3 6-7.3 6.3-7.4c11.5-12.9 25.3-30.8 36.8-43.9l91.9-109.4c9.6-12 20.7-24.4 30.6-36.5 7.7-9.5 17-19.9 24.5-29.2 7-8.8 17-20.3 24.6-29.3 6.7-8 17.7-21.5 24.5-29.3l49.1-58.5q6.3-7.3 12.3-14.6c7.4-9.3 16.9-19.8 24.6-29.3l24.6-29c1.3-5.4 2-12 3.2-17.8a159 159 0 0 1 4.6-16.5 182 182 0 0 1 39.8-65.3c2-2 2.8-3.5 5.2-5.5 1.5-1.2 3.8-3.6 5.1-5.5L672.7 127c-3.8-4-10.1-12.3-14-16.4l-52.4-61.2q-1.6-2-3.5-4l-24.6-28.5c-2.6 1-6 3-8.8 4.3l-9.2 4.5a600 600 0 0 1-58.1 23.5"/><path fill="#fff" d="m57 558.8 26.2-31q3.1-4 6.5-7.8c6.2-7 13.6-16.4 20-23.8l6.4-7.8c6.3-7.3 13.8-16.8 19.8-23.5l92.3-110q3.4-3.8 6.5-7.8l6.7-7.9 33-39.3c6.2-7 13.4-16.5 19.7-23.5 6.5-7.4 13.2-16.2 19.7-23.5l26.2-31.3c10.7-12.8 22.9-26.7 33.2-39.4l46-54.9 6.7-8c8-9 18-21.8 26.3-31.4l26-30.9v-.5c-7 1.6-13.8 3.7-21 5.4A443 443 0 0 1 289.1 69a492 492 0 0 1-122.8-35.5 470 470 0 0 1-35.9-16.8l-28 32.4c-7 8.9-17 19.5-24.4 28.5l-24.5 28.6c-8 9.6-16.7 19.2-24.5 28.6l-10.5 12.3 7.9 8c18.9 21 33.3 40.6 42.7 69.3 23.6 72.4-7.4 147-18.5 220.6-3 19.3-4.6 39.6-3.6 59.7a208 208 0 0 0 10 54m195 172.7c4.5 1.5 21.8 11.3 27.3 14.2 18.6 9.7 46.5 28 63.2 41l11.7 9.3 14.9-11.5a625 625 0 0 1 118.9-68q18.4-8.4 36.3-17.3a232 232 0 0 0 49.5-30.4c5.1-4.2 9.4-8.6 14-13a245 245 0 0 0 63.8-96.6c21.4-64 5.3-122.5-7.9-185.2-3-15-6.3-29.4-8.8-44.8a261 261 0 0 1-4-49.3c-.8.3-15.2 17.8-18 21l-2.8 3.5-53.3 63.5-3 3.5-86 102.5c-1 1.3-1.9 2.1-3 3.4-7.7 9.6-15.7 18.7-23.5 28.2l-35.6 42.4c-9.6 11.6-20.3 23.8-29.7 35.4l-8.9 10.5-2.9 3.6c-5.7 6.4-12.1 14.8-17.7 21l-12 14.3-11.8 14.1-11.8 14c-5.5 6.2-12.1 14.8-17.7 21.2l-6 7c-5 6-34.2 40.5-35.3 42.5"/><path d="M158.4 404.6c0 114.6 91 195.3 191.2 197.8h9.4c40-1 81-14.5 118-43.4l4.8-4c2.2-2 2.8-2.1 5-4 7-6.2 20.2-21 25.8-29.3 7.8-11.5 15-22 20.7-35.5 25.4-61.3 22.2-119-8.6-176-9.1-16.9-15.9-24-27.2-36.8a125 125 0 0 0-24-22c-74.3-55.7-175.7-54-244 4.1a153 153 0 0 0-22.6 22.3c-27.7 34.4-48.5 71.6-48.5 126.8"/><path fill="#fff" d="M334.7 225.4A182.3 182.3 0 1 0 374 587.5a182.3 182.3 0 0 0-39.2-362"/><path d="M312.2 257c-1.9 1.2-9 2.8-12 4-2.8 1.3-8.7 3.1-11.3 4.6-3.4 2-7.2 3.4-10.6 5.3q-5 2.8-10 6a153 153 0 0 0-33.7 30c-6.9 8-20.3 29-23.5 40-2.5 8.3-5.7 15-7.6 24.4-1.6 8.3-4 18.6-4 28.2v16.8a180 180 0 0 0 5.3 32.5c2 4 2.4 10.2 4.5 14.6 2 4.2 4 9 5.8 13.3a142 142 0 0 0 14.3 23.6c5.6 7.6 11.3 13.4 18 20.2a160 160 0 0 0 46.4 29.6c15.4 6 41.8 13 63 13l18.3.2 11.6-.5-1.3-18.3v-1.3l-16.3.5h-8a177 177 0 0 1-42.1-6 100 100 0 0 0-12.8-3.6c-.4-1-7.4-3.5-8.8-4a80 80 0 0 1-8.8-4.3c-5.6-3.5-10.7-5.9-16-9.9a128 128 0 0 1-44.5-59c-4-10.9-9-28.3-9-43v-10c0-6.5 1-11.9 1.5-17.9.3-2.2 1.1-5.7 1.5-8 .5-3.1 1.7-5.7 1.7-8.3 1-1.7 3-8.4 3.7-11A136 136 0 0 1 271 299a124 124 0 0 1 38.7-20.3c3.4-.8 7.2-2.7 11.3-3.4 4.5-.8 7.2-2 12.2-2.5 2.3-.3 3.5-1 6-1.2 1.5 0 5.4-.3 7-.6 3.7-.7 9.7-1 13.8-1h9.1l13.8.8 1.3-18.3v-1.2l-1.6.2-9.1-1h-14.3c-9.4 0-16.5 1.4-24.7 2-3.8.3-7.6 1.4-11 2.1-2.4.5-9.5 2.3-11.3 2.3m88.8 13.4 19-2.8 19 61.5.2 1.6 30.5 98.3.1 1.6 1.5 3.6.1 1.6 7 21.8a168 168 0 0 0 8.4-23.6c1.6-8.6 4.5-18 4.5-27.7V390a128 128 0 0 0-8-35.3c-2-4.6-4.3-11-6.8-14.8l-7.9-13.6c0-1 14.7-11 16.4-11.2.4 2 4.8 8 5.9 10l5.3 10.2c1.7 3.1 8.7 19.2 8.7 22.8 2.5 3.9 6.3 28 6.3 35.5v8.3c0 18.2-4.7 34.2-8.9 48.4-1.5 5.3-15.4 39.1-18.1 38.8l-17.1-1.6-23-74.5-.1-1.5-23.3-75-.2 207.2H401zm29.7 18.7 27.6 28.5 14-13.7-27.6-28.2zm-191 103.4a106 106 0 0 1 30.4-66.8 100 100 0 0 1 68.3-28.7h10.3c5.8 0 34.3 3.6 34.3 6.3V498h-19.5v-82H259v44.6h-19.5zm58-63.8a67 67 0 0 1 34.7-11.7c8.6-.7 15.2-.3 23.7.4l7.4.6v78.5H259a96 96 0 0 1 6.5-29c2.1-3.8 3.7-8.2 5.9-12a82 82 0 0 1 26.2-26.8"/></g></svg>