<svg xmlns="http://www.w3.org/2000/svg" xml:space="preserve" width="270.7" height="117.4" viewBox="0 0 270.7 117.4"><path d="M0 31.1c4-1.2 4.5-4.3 4.5-9.6V10.3c0-4.8 3.3-8 5.1-8H14v4.4h-2.4c-2.2 0-2.2 1.8-2.2 4.5v11.4c0 7-3.8 10-4.5 10.5.7.4 4.5 3.4 4.5 10.5V55c0 2.8 0 4.6 2.2 4.6H14V64H9.6c-1.8 0-5.1-3.2-5.1-8.1V44.6c0-5.2-.4-8.4-4.5-9.6zm44.8-6.4h.1q3-4.1 8-4.2c7.9 0 9.7 5.7 9.7 12.3v16.7h-4.8V33.6c0-4.6-.4-8.6-6-8.6-6.6 0-7 6-7 11.1v13.4H40V21.3h4.8zm24.4 10.8a14.8 14.8 0 1 1 29.6 0 14.8 14.8 0 1 1-29.6 0m4.8-.1c0 5.8 4 10.4 10 10.4s10-4.6 10-10.4C94 29.7 90 25 84 25s-10 4.7-10 10.4m54.6 14.1h-4.8V0h4.8zm6.4-14a14.8 14.8 0 1 1 29.6 0 14.8 14.8 0 1 1-29.6 0m4.8-.1c0 5.8 4 10.4 10 10.4s10-4.6 10-10.4c0-5.7-4-10.4-10-10.4s-10 4.7-10 10.4m56.9 12.7c0 4.5 0 8.4-2.9 12.1-2.6 3.4-6.7 5-11 5-7.8 0-13.6-5-13.8-13h4.8c0 5.3 3.9 8.6 9 8.6 7.5 0 9-5.5 9-11.8v-3.4c-2.3 3-6 4.7-9.8 4.7-8.2 0-13.5-7-13.5-14.8s5.3-15 13.7-15q6 .2 9.6 4.8v-4h4.9zm-23.2-13c0 5.5 3.2 10.7 9.2 10.7 6.2 0 9.4-5 9.4-10.6 0-5.7-3.5-10.2-9.5-10.2-5.5 0-9.1 4.8-9.1 10.1m30 .4a14.8 14.8 0 1 1 29.7 0c0 8.2-6.6 14.8-14.9 14.8-8.2 0-14.8-6.6-14.8-14.8m4.8-.1c0 5.8 4.1 10.4 10 10.4s10-4.6 10-10.4c0-5.7-4-10.4-10-10.4s-10 4.7-10 10.4m62.4-.4c-4.1 1.2-4.5 4.4-4.5 9.6v11.2c0 4.9-3.3 8.1-5.1 8.1h-4.4v-4.4h2.4c2.1 0 2.1-1.8 2.1-4.6V43.6c0-7 3.8-10 4.6-10.5-.8-.5-4.6-3.5-4.6-10.5V11.2c0-2.7 0-4.5-2.1-4.5h-2.4V2.2h4.4c1.8 0 5 3.3 5 8.1v11.2c0 5.3.5 8.4 4.6 9.6zM65 99.6q-1.6-2.3-4.4-2.4c-2.9 0-5 2.4-5 5.2s2 5.3 4.9 5.3q2.9-.1 4.6-2.5v3.2a8 8 0 0 1-4.4 1.5 7.3 7.3 0 0 1-7.5-7.5c0-4.2 3.4-7.4 7.5-7.4q2.3 0 4.4 1.4zm2.6 2.9a7.4 7.4 0 1 1 14.8 0c0 4.1-3.3 7.4-7.4 7.4a7.4 7.4 0 0 1-7.4-7.4m2.4 0c0 2.8 2 5.2 5 5.2s5-2.4 5-5.3c0-2.8-2-5.2-5-5.2s-5 2.4-5 5.2M88.1 97a4 4 0 0 1 3.5-2q2.5.1 3.9 2.3a5 5 0 0 1 4.2-2.3c3.6 0 4.5 3 4.5 6v8.5h-2.4v-8.2c0-1.8-.1-4-2.6-4-2.7 0-3 2.6-3 4.7v7.5h-2.4v-8c0-1.8-.2-4.3-2.6-4.3-2.8 0-3 2.9-3 5v7.3h-2.5V95.4h2.4zm24-7a1.7 1.7 0 1 1-3.4 0 1.7 1.7 0 0 1 3.4 0m-.5 19.5h-2.4V95.4h2.4zm7.4-12.4q1.5-2 4.1-2c3.9 0 4.8 2.7 4.8 6v8.4h-2.4v-8c0-2.2-.2-4.3-3-4.3-3.3 0-3.5 3-3.5 5.6v6.7h-2.4V95.4h2.4zm26.2 11.7c0 2.3 0 4.2-1.5 6a7 7 0 0 1-5.4 2.6c-4 0-6.9-2.5-7-6.5h2.5c0 2.6 1.9 4.2 4.5 4.2 3.7 0 4.5-2.7 4.5-5.9v-1.7a6 6 0 0 1-5 2.4c-4 0-6.7-3.5-6.7-7.4s2.7-7.5 6.8-7.5q3 0 4.8 2.4v-2h2.5zm-11.6-6.5c0 2.8 1.6 5.4 4.6 5.4s4.7-2.5 4.7-5.4c0-2.8-1.8-5-4.7-5-2.8 0-4.6 2.4-4.6 5m31.2-3.6q-.5-1.3-2-1.5c-.8 0-1.7.7-1.7 1.6 0 1.3 1.7 1.8 3.3 2.4 1.7.7 3.3 1.7 3.3 4.1 0 2.7-2.2 4.6-4.8 4.6a5 5 0 0 1-5-3.6l2.2-.9q.7 2.1 2.8 2.3 2.1-.1 2.3-2.2c0-3.1-6.3-2-6.3-6.5 0-2.4 1.9-4 4.2-4 1.6 0 3 1.2 3.7 2.6zm5 3.8a7.4 7.4 0 1 1 14.8 0c0 4.1-3.3 7.4-7.4 7.4a7.4 7.4 0 0 1-7.4-7.4m2.4 0c0 2.8 2 5.2 5 5.2s5-2.4 5-5.3c0-2.8-2-5.2-5-5.2s-5 2.4-5 5.2m14.5.1a7.4 7.4 0 1 1 14.8 0c0 4.1-3.3 7.4-7.4 7.4a7.4 7.4 0 0 1-7.4-7.4m2.4 0c0 2.8 2 5.2 5 5.2s5-2.4 5-5.3c0-2.8-2-5.2-5-5.2s-5 2.4-5 5.2m18.1-5.3q1.5-2 4-2c4 0 4.9 2.7 4.9 6v8.4h-2.4v-8c0-2.2-.2-4.3-3-4.3-3.3 0-3.5 3-3.5 5.6v6.7h-2.4V95.4h2.4z"/></svg>