<svg xmlns="http://www.w3.org/2000/svg" width="1229" height="1230"><circle cx="615" cy="615" r="609" fill="#e30c19"/><circle cx="615" cy="615" r="587.8" fill="#005091"/><circle cx="615" cy="615" r="424.1" fill="#fff"/><path fill="#005091" d="m614.6 436.3-51.8 139.8H421.5l44.2 36.1H338.5s6.3-9.3 12.8-24.6a112 112 0 0 0 8.1-57.6 197 197 0 0 0-32.1-87.1l75.9-91s52.6 23.8 81 27.5c26.8 3.6 44 5.8 76.5-8.7 31.2-14 55.4-25.5 106.2-1 51.6 25 93.9 9 159.3-17.8l76.2 90.7s-28.8 41.7-32.6 92.3c-2.2 27.7 6.3 49 13.2 62.3 4.4 8.5 8.2 14.6 8.2 14.6h-127l43.4-35.7h-141z"/><path fill="#e30c19" d="M331 625.5h150.6l21.5 17 26 21.4-40 139.5 125.4-83.1 126 82.6-40.1-139 47.2-38.6h151s17.4 37.3 15.7 70.3a184 184 0 0 1-3.2 31.1 174 174 0 0 1-33.3 69.8S850.6 834 800 860.7s-69.3 26.1-130.7 52.5a371 371 0 0 0-31.3 15c-16.2 9.1-23.2 15.9-23.2 15.9s-7-7.6-24.6-16.7-40.6-19.6-75.2-32.4c0 0-72.2-22.4-103.6-45.5-4.8-3.5-12-8-19-13.2a200 200 0 0 1-41-40.4c-21-29-32.4-52.5-36-93.7-3-36 15.4-76.7 15.4-76.7"/><g fill="#fff"><path d="m52.7 601.2 113 7.1 1.8-29-47.4-3 1.3-18.5-21.7-1.2-1.3 18-21.2-1.5 1.4-20.3-22.7-1.5zM68.9 480l-9.7 48 111 22.3 10-50.3-22.4-4.3-4.2 21.1-24.3-4.7 3.6-18.2-21.1-4-3.6 17.8-20.8-4 3.8-19.4zm121.5-58.4s-30.3-13.7-72.8-27.2c0 0-13.3-3.7-22.5 10.3 0 0-4.3 6.3-18.9 46.3l106.1 39.2 16.2-44s6.6-17.9-8-24.6M174.2 456l-69.5-25.8 1.3-3c1.1-2.2 3.1-5 7.2-3.5 0 0 47.4 16.2 59.9 23 5 2.7 1 9.3 1 9.3m-36.4-138.8L113.6 360l98.6 55.7 25-44.8-19.9-11-10.5 18.8-21.6-12 9.1-16.2-18.8-10.5-9 15.9-18.5-10.3 9.6-17.2zm89.3-30.4s5.9-7.7 2.8-14.6-21.8-23-33.5-21.6c-8.6 1-11.3 4.4-14.1 7a672 672 0 0 0-28.5 34.6l88.6 70.1 18.2-23-40-31.9 5.1-4.1s1.9-.4 5.4 1.9 35 27.2 35 27.2l17.1-21.3-35.4-27.4c-2.7-1.4-9.3-5.7-20.7 3.1m-17.5 5.8-2.7 4.5-20-15.9s2.2-2.3 4.2-3.6 4-.4 4-.4c10 6 12.5 9.6 14 11.2 1.6 1.6.5 4.2.5 4.2m110.6-15.9 22.2-20.2-88-72.9-31.6 28.5 64.2 94 22.8-20.4-12.2-16.4 7.8-6.6zM283.7 255l-20-28.3-6.8-10.1 34.2 31.7zm73.3-61.4 25-15.7s13.4 20.7 13.7 28.5c.3 8.4-1 19.3-17.9 30.4-16 10.4-27.3 6.7-29 6.3s-8.7-2.9-14.9-11.8c-9.1-13.2-26-39.3-33-52.3s-3.2-21-.7-26.6 13.2-17.7 30.4-21.7 26.2 9 29.9 13.7 11.7 18 11.7 18l-25 15.6-15-23.2s-2.4-4-6.7-1.5-1.8 6.5-1.3 7.5 33.2 54 36.7 58.2c3 3.6 6.1 2 7 1.4s3.4-2.5 1.5-6.2c-2-3.8-12.4-20.6-12.4-20.6m13.9-84.8 26.7-12.2 46.6 103.1-27 12.2zm142.6 44.4c-1.1-7.5-4.5-18.7-7.4-28.4-5.3-18-10.7-34.2-10.7-34.2-10.4-27-40-17-40-17-23.5 7.4-26.6 23.7-24.6 34.9 1 5.4 5.3 20.3 9.5 34.2 4.6 15.2 6.3 21.5 9.1 28.6 8.6 21 29.7 18.5 39.8 15.4s27.4-11.9 24.3-33.5m-30 15c-3.5 1.4-5-1.1-5.8-3.7s-19-63.4-19.6-66.5.9-5.3 2.6-5.9c0 0 3.9-1.3 5.7 3.2.9 2 5.2 16.6 9.5 31.2l9.8 34.4c.4 3.4 1.7 5.9-2.2 7.4m68.8-48.8 5.3 50.4-24.6 2.8L521 60l24.4-2.7 21.7 48.3-5.4-50 24.4-2.7 12.2 112.3-25.6 2.9zm212.6 54.3s10.7-31.5 19.8-75.1c0 0 2.4-13.6-12.5-21.4 0 0-6.7-3.8-48-14.1L696 172.4l43.5 11.1s20.3 5.4 25.5-9.9m-35.8-12.4L747.9 89l3 1c2.4 1 5.2 3 4.2 7.2 0 0-11.8 48.6-16.6 61.5-1.5 4.3-9.4 2.6-9.4 2.6m134.5-50.6-45-19.8-45.4 103.7 47 20.5 8.9-21-19.7-8.6 9.8-22.6 17 7.4 8.5-19.8L828 143l8.4-19.4 18.1 8zm105.4 126L955.2 253l-14-11.7-30.5 36-22.6-19 73.3-86.2 37.8 32.5-14.4 17.1-15.9-13-13.5 16.2zm68 7.6-19.3-22-66.8 58.3s-19.8 15.4 1.2 42.2c0 0 9.9 14.4 26 14.2 0 0 8.6 1 18.9-7.9l64.8-56-19.3-22.3-66 56.9s-5.4 5.8-8.6 3.7c-3.4-2.2-1.3-5.4.2-6.7l19.3-17.2c12.7-10.5 49.6-43.2 49.6-43.2m-31.5 149.1L990 368.1l76.9-47-9-14.9 19.3-11.9 33.8 54.8-19.5 11.9-9-15zm134.7 27.1c-1.4-11.7-17.2-47.3-17.2-47.3l-104.7 42.7 17.7 42.7c.9 1.4 5.3 12.5 12.6 13.8s12 0 20.2-3.3 18.2-6.2 23.3-13c4-5.5 2-15.6 2-15.6 6.1 7.7 9.3 9.3 14.1 8.9 5.5-.5 11.7-2.9 16-5.3 3.7-2 7.7-4.2 10.5-7.2a22 22 0 0 0 5.5-16.4m-62 10.3q-.7 2.8-4.3 4.2c-3.6 1.4-17 7.3-19 7.5s-4 .8-7.6-6.7l29.5-11.9s2 4.8 1.5 6.9m39.6-16.3c-.5 2-2 3-4.4 4.2a50 50 0 0 1-13.2 5.3c-2 .5-4.6.8-7-6.7l23.1-9.6s2 4.8 1.5 6.8m-34.5 136.7c7.5-.5 19-3 28.9-5 18.3-3.9 35-8 35-8 28.2-8.7 20-38.5 20-38.5-5.4-24-21.3-28.4-32.7-27.3-5.4.6-20.7 3.6-34.8 6.7-15.6 3.3-22 4.4-29.3 6.8-21.2 6.9-20.8 28-18.6 38.4 2.2 10.1 9.7 28.3 31.5 26.9m-12.6-31.1c-1.1-3.6 2.2-5 4.8-5.7s64.1-13.6 67.2-14 5.3 1.3 5.7 3.1c0 0 1.5 3.7-4 5.4-2.1.6-16.5 3.9-31.5 7l-35 7c-3.4 0-6 1.2-7.2-2.8m-8.8 49.2 2.5 47.1 22.7-1.3-1-17.8 90.2-4.8-1.6-29.3zm-667 548.4s17.3-28.5 35.7-69c0 0 5.3-12.8-7.5-23.6 0 0-5.7-5.1-43.7-24.3L328 1101.4l41.8 21.4s17 8.6 25.3-5.1m-32.1-20.3 33.9-66 2.7 1.8c2.2 1.4 4.6 3.6 2.7 7.6 0 0-21.7 45.1-30 56.6-3.3 4.7-9.3 0-9.3 0m136.1-46-46.6-15.3-35 107.6 48.7 15.8 6.8-21.7-20.4-6.7 7.6-23.5 17.6 5.7 6.5-20.5-17.3-5.7 6.4-20.2 18.8 6.1zm124 82h30s.9 22.6-4 31c-3.8 6.6-11.7 16.2-31.6 16.5-19.8.3-26.8-8.6-28-9.8s-6-7.3-6.5-18.1c-1-16-1.4-46.8-.5-61.6s8.2-19.5 13.2-23 20.6-8.5 37.2-2.5c16.2 5.8 17.6 19.4 18.1 26.5.5 6 .5 22.4.5 22.4H622l-.4-27.6s.1-4.7-4.8-4.8-5 4.6-5 5.7c-.3 2-.9 51.8.1 68.8.3 4.7 4 5 5 5s4.5-.3 4.7-4.5zm72.2-74.9 6.6 39.7-8.5 1.6-6.7-39.8-29 5 18.7 111.3 29.2-5-8-46.8 8.6-1.3 8 46.9 28.9-5-18.9-111.6zm39.4-8.7 28.1-9 33.6 108-28.2 9zm40.8-13.1 27.3-11.9 36 82.9 16.3-7.1 9 20.7-43.2 19zm49.6-22.3 42-25.1 11.8 19.4-16.9 10.2 11 18.2 15.8-9.6 11 18.5-15.6 9.6 12.8 21.3 18.2-11 11.6 19.4-43.7 26z"/><circle cx="940.1" cy="989.8" r="16.4"/><circle cx="299.1" cy="1016.8" r="16.4"/></g></svg>